<mxfile host="app.diagrams.net" modified="2024-04-09T17:10:08.308Z" agent="Mozilla/5.0 (Windows NT 10.0; Win64; x64) AppleWebKit/537.36 (KHTML, like Gecko) Chrome/123.0.0.0 Safari/537.36" etag="VU1sV1pe0wdtJvEPmVr_" version="24.2.3" type="device">
  <diagram name="Page-1" id="mtAr_mu7G6u2_z8CVEQU">
    <mxGraphModel dx="630" dy="610" grid="1" gridSize="10" guides="1" tooltips="1" connect="1" arrows="1" fold="1" page="1" pageScale="1" pageWidth="827" pageHeight="1169" math="0" shadow="0">
      <root>
        <mxCell id="0" />
        <mxCell id="1" parent="0" />
        <mxCell id="e3sRT_NtdZ0zjib1vqxx-1" value="" style="ellipse;whiteSpace=wrap;html=1;aspect=fixed;" parent="1" vertex="1">
          <mxGeometry x="260" y="520" width="20" height="20" as="geometry" />
        </mxCell>
        <mxCell id="e3sRT_NtdZ0zjib1vqxx-2" value="" style="ellipse;whiteSpace=wrap;html=1;aspect=fixed;labelBackgroundColor=#000000;fillColor=#000000;" parent="1" vertex="1">
          <mxGeometry x="265" y="525" width="10" height="10" as="geometry" />
        </mxCell>
        <mxCell id="e3sRT_NtdZ0zjib1vqxx-3" style="edgeStyle=orthogonalEdgeStyle;rounded=0;orthogonalLoop=1;jettySize=auto;html=1;exitX=0.898;exitY=-0.006;exitDx=0;exitDy=0;entryX=0.5;entryY=1;entryDx=0;entryDy=0;exitPerimeter=0;" parent="1" target="e3sRT_NtdZ0zjib1vqxx-1" edge="1">
          <mxGeometry relative="1" as="geometry">
            <mxPoint x="269.80000000000007" y="599.9999999999999" as="sourcePoint" />
          </mxGeometry>
        </mxCell>
        <mxCell id="e3sRT_NtdZ0zjib1vqxx-30" style="edgeStyle=orthogonalEdgeStyle;rounded=0;orthogonalLoop=1;jettySize=auto;html=1;entryX=0.75;entryY=0;entryDx=0;entryDy=0;exitX=1;exitY=0.25;exitDx=0;exitDy=0;" parent="1" source="e3sRT_NtdZ0zjib1vqxx-5" target="e3sRT_NtdZ0zjib1vqxx-29" edge="1">
          <mxGeometry relative="1" as="geometry" />
        </mxCell>
        <mxCell id="e3sRT_NtdZ0zjib1vqxx-5" value="Idling" style="rounded=1;whiteSpace=wrap;html=1;" parent="1" vertex="1">
          <mxGeometry x="190" y="600" width="100" height="40" as="geometry" />
        </mxCell>
        <mxCell id="e3sRT_NtdZ0zjib1vqxx-6" value="" style="html=1;verticalAlign=bottom;startArrow=oval;startFill=1;endArrow=classic;startSize=14;curved=0;rounded=0;endFill=1;" parent="1" edge="1">
          <mxGeometry width="60" relative="1" as="geometry">
            <mxPoint x="210" y="530" as="sourcePoint" />
            <mxPoint x="210" y="600.24" as="targetPoint" />
          </mxGeometry>
        </mxCell>
        <mxCell id="e3sRT_NtdZ0zjib1vqxx-7" value="[isOnline = true]" style="text;align=center;verticalAlign=middle;resizable=0;points=[];autosize=1;strokeColor=none;fillColor=none;fontSize=10;" parent="1" vertex="1">
          <mxGeometry x="120" y="550" width="90" height="30" as="geometry" />
        </mxCell>
        <mxCell id="e3sRT_NtdZ0zjib1vqxx-8" value="[isOnline = false]" style="text;align=center;verticalAlign=middle;resizable=0;points=[];autosize=1;strokeColor=none;fillColor=none;fontSize=10;" parent="1" vertex="1">
          <mxGeometry x="265" y="550" width="100" height="30" as="geometry" />
        </mxCell>
        <mxCell id="e3sRT_NtdZ0zjib1vqxx-12" value="detectionThreshold&#xa;exceeded" style="text;align=left;verticalAlign=bottom;resizable=0;points=[];autosize=1;strokeColor=none;fillColor=none;fontSize=10;" parent="1" vertex="1">
          <mxGeometry x="430" y="710" width="110" height="40" as="geometry" />
        </mxCell>
        <mxCell id="S7QtOtBe46UJpljCqL94-6" style="edgeStyle=orthogonalEdgeStyle;rounded=0;orthogonalLoop=1;jettySize=auto;html=1;entryX=0.5;entryY=0;entryDx=0;entryDy=0;" edge="1" parent="1" source="e3sRT_NtdZ0zjib1vqxx-14" target="e3sRT_NtdZ0zjib1vqxx-36">
          <mxGeometry relative="1" as="geometry" />
        </mxCell>
        <mxCell id="e3sRT_NtdZ0zjib1vqxx-14" value="Activating sound alarm" style="rounded=1;whiteSpace=wrap;html=1;" parent="1" vertex="1">
          <mxGeometry x="370" y="840" width="100" height="35" as="geometry" />
        </mxCell>
        <mxCell id="e3sRT_NtdZ0zjib1vqxx-21" value="Smoke sensor" style="text;html=1;align=center;verticalAlign=middle;resizable=0;points=[];autosize=1;strokeColor=none;fillColor=none;fontStyle=1;fontSize=16;" parent="1" vertex="1">
          <mxGeometry x="175" y="460" width="130" height="30" as="geometry" />
        </mxCell>
        <mxCell id="e3sRT_NtdZ0zjib1vqxx-28" value="detectionThreshold not exceeded" style="text;html=1;align=center;verticalAlign=middle;resizable=0;points=[];autosize=1;strokeColor=none;fillColor=none;fontSize=8;" parent="1" vertex="1">
          <mxGeometry x="290" y="615" width="140" height="20" as="geometry" />
        </mxCell>
        <mxCell id="e3sRT_NtdZ0zjib1vqxx-33" style="edgeStyle=orthogonalEdgeStyle;rounded=0;orthogonalLoop=1;jettySize=auto;html=1;exitX=0.25;exitY=0;exitDx=0;exitDy=0;entryX=1;entryY=0.75;entryDx=0;entryDy=0;" parent="1" source="e3sRT_NtdZ0zjib1vqxx-29" target="e3sRT_NtdZ0zjib1vqxx-5" edge="1">
          <mxGeometry relative="1" as="geometry" />
        </mxCell>
        <mxCell id="e3sRT_NtdZ0zjib1vqxx-35" style="edgeStyle=orthogonalEdgeStyle;rounded=0;orthogonalLoop=1;jettySize=auto;html=1;exitX=0.5;exitY=1;exitDx=0;exitDy=0;entryX=0.5;entryY=0;entryDx=0;entryDy=0;" parent="1" source="e3sRT_NtdZ0zjib1vqxx-29" edge="1">
          <mxGeometry relative="1" as="geometry">
            <mxPoint x="420" y="760" as="targetPoint" />
          </mxGeometry>
        </mxCell>
        <mxCell id="e3sRT_NtdZ0zjib1vqxx-29" value="Checking smoke levels" style="rounded=1;whiteSpace=wrap;html=1;" parent="1" vertex="1">
          <mxGeometry x="370" y="670" width="100" height="40" as="geometry" />
        </mxCell>
        <mxCell id="e3sRT_NtdZ0zjib1vqxx-31" value="5s passed" style="text;html=1;align=center;verticalAlign=middle;resizable=0;points=[];autosize=1;strokeColor=none;fillColor=none;fontSize=10;" parent="1" vertex="1">
          <mxGeometry x="295" y="585" width="70" height="30" as="geometry" />
        </mxCell>
        <mxCell id="e3sRT_NtdZ0zjib1vqxx-36" value="Inserting new Alert in DB" style="rounded=1;whiteSpace=wrap;html=1;" parent="1" vertex="1">
          <mxGeometry x="370" y="917.5" width="100" height="35" as="geometry" />
        </mxCell>
        <mxCell id="S7QtOtBe46UJpljCqL94-5" style="edgeStyle=orthogonalEdgeStyle;rounded=0;orthogonalLoop=1;jettySize=auto;html=1;entryX=0.5;entryY=0;entryDx=0;entryDy=0;" edge="1" parent="1" source="e3sRT_NtdZ0zjib1vqxx-45" target="e3sRT_NtdZ0zjib1vqxx-14">
          <mxGeometry relative="1" as="geometry" />
        </mxCell>
        <mxCell id="e3sRT_NtdZ0zjib1vqxx-45" value="Activating fire sprinklers" style="rounded=1;whiteSpace=wrap;html=1;" parent="1" vertex="1">
          <mxGeometry x="370" y="760" width="100" height="35" as="geometry" />
        </mxCell>
        <mxCell id="S7QtOtBe46UJpljCqL94-8" style="edgeStyle=orthogonalEdgeStyle;rounded=0;orthogonalLoop=1;jettySize=auto;html=1;entryX=0;entryY=0.5;entryDx=0;entryDy=0;exitX=0.5;exitY=0;exitDx=0;exitDy=0;" edge="1" parent="1" source="e3sRT_NtdZ0zjib1vqxx-50" target="e3sRT_NtdZ0zjib1vqxx-5">
          <mxGeometry relative="1" as="geometry" />
        </mxCell>
        <mxCell id="e3sRT_NtdZ0zjib1vqxx-50" value="Deactivating sound alarm" style="rounded=1;whiteSpace=wrap;html=1;" parent="1" vertex="1">
          <mxGeometry x="75" y="840" width="80" height="40" as="geometry" />
        </mxCell>
        <mxCell id="e3sRT_NtdZ0zjib1vqxx-52" value="isTriggered toggled" style="text;html=1;align=center;verticalAlign=top;resizable=0;points=[];autosize=1;strokeColor=none;fillColor=none;fontSize=10;" parent="1" vertex="1">
          <mxGeometry x="210" y="940" width="110" height="30" as="geometry" />
        </mxCell>
        <mxCell id="S7QtOtBe46UJpljCqL94-7" style="edgeStyle=orthogonalEdgeStyle;rounded=0;orthogonalLoop=1;jettySize=auto;html=1;entryX=0.5;entryY=1;entryDx=0;entryDy=0;" edge="1" parent="1" source="bujkPSTszXaOcB1DJTDN-3" target="e3sRT_NtdZ0zjib1vqxx-50">
          <mxGeometry relative="1" as="geometry" />
        </mxCell>
        <mxCell id="bujkPSTszXaOcB1DJTDN-3" value="Deactivating fire sprinklers" style="rounded=1;whiteSpace=wrap;html=1;" parent="1" vertex="1">
          <mxGeometry x="70" y="915" width="90" height="40" as="geometry" />
        </mxCell>
        <mxCell id="bujkPSTszXaOcB1DJTDN-7" value="" style="edgeStyle=orthogonalEdgeStyle;rounded=0;orthogonalLoop=1;jettySize=auto;html=1;entryX=1;entryY=0.5;entryDx=0;entryDy=0;exitX=0;exitY=0.5;exitDx=0;exitDy=0;" parent="1" source="e3sRT_NtdZ0zjib1vqxx-36" target="bujkPSTszXaOcB1DJTDN-3" edge="1">
          <mxGeometry relative="1" as="geometry">
            <mxPoint x="232.34000000000003" y="934.96" as="sourcePoint" />
            <mxPoint x="135" y="935" as="targetPoint" />
            <Array as="points" />
          </mxGeometry>
        </mxCell>
      </root>
    </mxGraphModel>
  </diagram>
</mxfile>
